<svg version="1.1" id="Layer_1" xmlns="http://www.w3.org/2000/svg" xmlns:xlink="http://www.w3.org/1999/xlink" x="0px" y="0px"
	 width="100%" viewBox="0 0 846 295" enable-background="new 0 0 846 295" xml:space="preserve">
<path fill="#FAFDFC" opacity="1.000000" stroke="none" 
	d="
M376.000336,143.829926 
	C376.958527,153.814972 383.365051,160.273773 392.729218,161.935410 
	C403.302917,163.811661 412.428131,161.480026 418.203827,151.382370 
	C418.505646,150.854736 419.136841,150.206100 419.660400,150.162460 
	C425.044098,149.713669 430.434967,149.293961 435.831390,149.151443 
	C436.329468,149.138306 437.510345,151.235275 437.311035,152.110291 
	C434.172333,165.889969 417.389954,180.546600 402.926544,179.071655 
	C398.167969,178.586395 393.205505,179.654373 388.534119,178.855362 
	C379.433350,177.298752 371.859131,173.049744 365.759827,165.576706 
	C357.807373,155.833191 355.474487,144.886276 355.998627,132.822479 
	C356.750458,115.517654 367.559906,99.906235 385.426666,94.759926 
	C402.800690,89.755562 417.811707,94.114861 430.037903,106.130196 
	C435.186493,111.190002 438.640198,118.910019 439.030609,127.018890 
	C439.082428,128.095520 439.653107,129.147186 439.655334,130.899734 
	C439.215759,132.405930 439.077362,133.220139 438.997223,134.040054 
	C438.381592,140.337509 437.667236,140.868591 431.342773,141.039871 
	C426.496429,141.171143 421.663849,141.803207 416.817413,141.941025 
	C410.742676,142.113754 404.649231,141.785950 398.583588,142.080460 
	C391.045319,142.446457 383.527161,143.227905 376.000336,143.829926 
M418.737335,121.191360 
	C412.314301,111.977348 401.659180,106.258301 390.269318,110.265923 
	C382.522644,112.991661 375.708374,121.165199 376.468994,126.836258 
	C390.896149,126.836258 405.335022,126.836258 419.803223,126.836258 
	C419.511932,125.092529 419.250610,123.528229 418.737335,121.191360 
z"/>
<path fill="#FBD22E" opacity="1.000000" stroke="none" 
	d="
M210.808517,187.012527 
	C210.808517,187.012527 210.968185,187.465118 210.987106,188.091812 
	C211.020126,189.497284 211.034210,190.276047 211.048309,191.054825 
	C211.048309,191.054825 211.015015,190.988434 210.786011,191.155060 
	C210.368835,191.881134 210.180679,192.440567 209.624481,192.933304 
	C208.121948,190.115524 206.987457,187.364441 205.489624,183.732224 
	C204.961502,187.912003 204.550232,191.166901 204.063370,195.020096 
	C206.852951,195.020096 208.958405,195.020096 211.063843,195.020096 
	C211.039474,196.406357 211.015106,197.792633 210.568222,199.633179 
	C206.438934,200.441879 202.211166,199.735840 201.066193,205.040726 
	C200.971466,205.479645 198.651093,205.900757 197.580811,205.588913 
	C192.035843,203.973267 192.084381,203.885757 192.911728,209.554901 
	C193.076462,210.683640 192.979004,211.850647 193.028503,213.320709 
	C193.701401,214.429047 194.348221,215.216660 194.995880,216.252289 
	C194.996704,216.500305 194.995728,216.996338 194.687302,217.158722 
	C190.788376,221.052750 190.598328,220.925018 188.862671,215.751007 
	C188.508514,214.695267 186.948151,214.044144 185.943817,213.206482 
	C185.378601,214.247406 184.669220,215.240784 184.304123,216.347733 
	C184.096420,216.977493 184.451492,217.792877 184.573975,218.674759 
	C179.636017,217.737030 179.741837,214.326691 180.020615,210.935089 
	C180.320480,207.287033 178.816193,205.926773 175.124496,205.946899 
	C154.681992,206.058456 134.238205,205.947769 113.795975,206.082169 
	C111.790131,206.095367 109.576317,206.907089 107.845085,207.974380 
	C105.722862,209.282684 104.007324,211.250671 101.905159,213.121017 
	C101.290077,211.590500 100.904678,210.631500 100.675346,210.060837 
	C98.871094,212.379135 97.164322,214.807861 97.022461,214.719666 
	C94.239410,212.989319 91.638321,210.966309 88.962807,208.654938 
	C81.150238,201.223206 77.158363,192.739670 78.955040,181.992493 
	C79.280281,180.047012 79.003853,178.000946 79.387955,175.916107 
	C80.180878,174.685959 80.742188,173.570633 80.973312,172.390656 
	C81.714493,168.606644 82.333527,164.798706 83.428192,161.000000 
	C85.571129,161.000000 87.285561,161.000000 89.260292,161.176575 
	C91.966988,164.210297 92.506714,162.165588 93.258347,160.107452 
	C94.011810,160.476395 94.506355,160.737900 95.296097,161.218567 
	C100.727478,164.291840 105.863663,167.145920 110.823151,170.260376 
	C110.098686,171.349289 109.550919,172.177856 109.001404,173.254211 
	C108.999664,173.502014 108.991264,173.997559 108.648880,174.054260 
	C108.161552,175.182739 107.494133,176.660446 107.958817,177.258530 
	C110.448563,180.462906 113.220528,183.447983 115.836388,186.441803 
	C115.700676,186.505554 114.836830,186.911423 112.430984,188.041779 
	C117.075195,190.024933 120.509232,192.767593 123.743752,192.549622 
	C127.792099,192.276810 132.303024,191.112015 135.251251,192.519165 
	C145.657486,197.485916 158.695465,196.287048 166.583252,185.954803 
	C168.985306,187.568054 171.405914,189.193756 174.744904,191.436264 
	C174.836472,189.509506 175.217300,188.230026 174.882919,187.177826 
	C174.104721,184.728958 172.981949,182.389587 172.273026,179.877289 
	C173.365051,179.167374 174.182831,178.586029 175.108215,178.290161 
	C175.036896,179.971069 174.857971,181.366486 174.679062,182.761902 
	C176.979309,180.318314 178.451920,177.607956 179.684402,174.792465 
	C179.760101,174.619522 177.939117,173.616302 176.990784,172.613495 
	C175.557327,171.154678 174.279907,169.671326 172.677444,169.100464 
	C169.949890,168.128799 167.017914,167.731018 164.171814,167.092102 
	C164.211792,166.610352 164.251770,166.128601 164.291748,165.646851 
	C166.187164,164.711395 168.082581,163.775940 169.977997,162.840485 
	C169.935760,162.428894 169.893524,162.017303 169.851303,161.605713 
	C168.071671,161.408478 166.275803,160.949020 164.515106,161.057922 
	C155.313354,161.627121 146.115219,162.278015 136.928848,163.054520 
	C134.997177,163.217819 132.829315,163.586517 131.269409,164.616486 
	C125.297134,168.559814 123.480225,168.411865 117.555344,163.731918 
	C116.296318,162.737457 113.927620,162.607483 112.184677,162.862289 
	C105.655434,163.816910 101.269836,162.340622 99.416664,158.000397 
	C101.222221,157.999954 102.611107,157.999710 104.263550,158.282410 
	C111.523384,159.376511 118.505882,160.423218 125.525604,160.834045 
	C127.290245,160.937332 129.174194,159.002090 131.471771,158.003067 
	C144.959198,158.002579 157.978180,158.002731 171.075424,158.373352 
	C174.345657,161.388000 177.161072,159.552490 180.416702,158.000137 
	C182.221878,158.000290 183.610641,158.000443 185.165527,158.234436 
	C186.221100,158.312180 187.110550,158.156097 188.422485,158.000183 
	C191.430481,158.187561 194.592987,159.371948 196.448776,158.298096 
	C198.553101,157.080429 199.555527,153.877975 200.892838,151.458740 
	C201.364166,150.606094 201.409775,149.518097 201.716019,148.266846 
	C205.922684,152.656097 198.534576,159.288528 206.024307,163.436127 
	C206.425735,160.920563 206.550995,159.075638 207.048752,157.337372 
	C207.481155,155.827301 208.334900,154.437866 209.004120,153.462418 
	C209.336792,160.617493 209.667801,167.305283 209.998810,174.247131 
	C209.998001,174.670517 209.997177,174.839828 209.708008,175.294312 
	C209.882629,179.390472 210.345566,183.201508 210.808517,187.012527 
M179.714981,182.073425 
	C179.271469,183.256424 178.190857,184.705063 178.545395,185.555298 
	C178.990402,186.622452 180.514511,187.645386 181.741440,187.912064 
	C187.761703,189.220505 192.706863,186.471390 197.265503,183.070236 
	C200.021927,181.013702 199.404861,178.722321 196.474533,176.962433 
	C195.025101,176.091965 193.654480,174.466965 193.082764,172.882278 
	C191.700714,169.051453 189.747650,169.507111 187.086044,171.402161 
	C182.880951,174.396210 186.894791,176.735321 188.144547,179.994217 
	C185.392197,180.719772 182.954163,181.362473 179.714981,182.073425 
M86.351318,179.075958 
	C85.767250,179.421188 85.183182,179.766418 84.599113,180.111664 
	C85.101089,180.379074 85.603065,180.646484 86.105042,180.913910 
	C86.402977,180.351654 86.700905,179.789398 86.351318,179.075958 
z"/>
<path fill="#FAFDFC" opacity="1.000000" stroke="none" 
	d="
M527.001160,143.837769 
	C525.673889,147.293579 528.142578,153.898911 532.076172,156.548615 
	C537.195007,159.996735 542.484436,163.186951 549.792114,162.319397 
	C551.640076,162.476425 552.820068,162.322021 554.000000,162.167603 
	C554.433533,162.110580 554.867004,162.053574 555.834656,162.209930 
	C558.233826,161.578049 560.098877,160.732803 561.963928,159.887543 
	C561.967896,159.529205 562.123657,159.258133 562.896484,158.961700 
	C563.653870,158.703247 563.872253,158.483902 564.016846,158.191101 
	C564.016846,158.191101 564.440430,158.023895 565.035706,158.002075 
	C566.658081,157.180893 567.771912,156.468063 568.683838,155.553864 
	C569.372192,154.863861 569.830261,153.177170 570.343079,153.196579 
	C576.061707,153.412949 582.474121,150.910400 586.837280,156.993698 
	C581.774109,164.563065 576.503052,171.947632 567.743896,175.712921 
	C564.835388,176.963196 561.776428,178.851318 558.813293,178.802643 
	C549.691589,178.652832 540.219116,180.996994 531.524536,176.884613 
	C525.231018,173.907913 518.887085,170.710281 516.935974,162.754730 
	C515.390137,156.451721 512.794739,150.413635 511.027557,144.155624 
	C508.393890,134.829163 510.626556,125.918617 514.018372,117.204514 
	C518.103760,106.708344 526.029297,99.843796 536.017517,95.590935 
	C550.884094,89.260948 572.533569,94.111900 581.294006,108.850792 
	C584.430725,114.128143 586.960938,119.766022 589.486084,125.812897 
	C588.470093,129.622086 587.288208,132.835281 587.124512,136.099503 
	C586.952087,139.539520 585.086365,141.968689 582.455811,140.733673 
	C578.521484,138.886581 575.194458,140.328705 571.899963,141.127884 
	C558.599792,144.354172 545.132568,142.408722 531.759033,143.023315 
	C530.164001,143.096603 528.586670,143.556870 527.001160,143.837769 
M560.463135,126.993271 
	C563.902222,126.993271 567.341309,126.993271 570.884094,126.993271 
	C567.633789,115.618210 558.532410,109.292267 548.154236,109.044540 
	C539.299927,108.833176 529.827209,116.982300 527.098083,126.993423 
	C537.958618,126.993423 548.715393,126.993423 560.463135,126.993271 
z"/>
<path fill="#F9FDFC" opacity="1.000000" stroke="none" 
	d="
M725.959717,116.056274 
	C732.357178,127.978058 731.459229,140.228210 727.800964,151.937103 
	C723.345398,166.198013 710.513306,177.505432 694.261047,179.340515 
	C685.055664,180.379929 676.717346,179.198288 668.759521,175.746246 
	C659.276001,171.632385 652.781372,163.706741 649.216980,154.193909 
	C644.721802,142.197021 644.514160,129.906693 649.632996,117.731918 
	C654.860413,105.298691 664.152283,97.533058 676.846985,94.162949 
	C689.864990,90.707001 702.646362,92.978264 713.517273,100.563789 
	C718.617065,104.122368 723.916199,108.900055 725.959717,116.056274 
M672.280151,157.549713 
	C672.511169,157.785355 672.790710,157.921478 673.585327,158.074692 
	C673.886414,158.259201 674.038696,158.528015 674.110107,159.587982 
	C679.639709,166.221924 687.160278,166.327637 694.367676,164.480911 
	C699.207886,163.240692 705.118164,161.684555 706.001404,154.152084 
	C714.866516,140.740997 714.767700,126.935852 702.164490,114.847595 
	C697.003845,109.897820 690.055054,109.117882 682.993530,110.472740 
	C674.520508,112.098442 668.353027,117.630180 666.361389,125.156868 
	C663.726074,135.115829 662.839844,145.862854 671.047180,154.624817 
	C671.618713,155.234940 671.697937,156.306259 672.280151,157.549713 
z"/>
<path fill="#F8CE2C" opacity="1.000000" stroke="none" 
	d="
M209.002441,152.995117 
	C208.334900,154.437866 207.481155,155.827301 207.048752,157.337372 
	C206.550995,159.075638 206.425735,160.920563 206.024307,163.436127 
	C198.534576,159.288528 205.922684,152.656097 201.716019,148.266846 
	C201.409775,149.518097 201.364166,150.606094 200.892838,151.458740 
	C199.555527,153.877975 198.553101,157.080429 196.448776,158.298096 
	C194.592987,159.371948 191.430481,158.187561 188.326111,157.758759 
	C187.537979,157.072525 187.268692,156.627884 187.406860,156.108276 
	C191.253296,156.105469 194.675140,155.811493 194.766632,151.329514 
	C194.842773,147.599930 193.997787,143.849472 194.099838,140.123032 
	C194.205399,136.269257 193.676651,133.484558 189.842224,131.202118 
	C184.555008,128.054901 184.408661,118.887833 189.049820,114.934723 
	C190.324051,113.849396 191.787674,112.986412 193.545258,111.950745 
	C194.572617,111.203239 195.757645,110.543739 195.780106,109.846779 
	C195.954071,104.448067 196.042969,99.035507 195.787689,93.644791 
	C195.744232,92.726929 193.928040,91.893013 192.966431,91.015808 
	C193.002029,91.011307 193.008530,91.082794 192.737183,90.756699 
	C187.036316,90.289902 181.605011,89.993813 176.177780,90.055450 
	C171.457779,90.109047 166.742371,90.566910 161.555145,90.862015 
	C141.084396,90.830887 121.083435,90.783867 100.954231,90.617027 
	C100.522812,90.579674 100.219635,90.662132 99.549927,90.781769 
	C98.447716,90.832222 97.712044,90.845505 96.721146,90.615433 
	C93.066841,89.438393 90.520370,90.999901 90.307434,94.128937 
	C89.969101,99.100418 90.606430,104.138298 90.903534,109.304810 
	C90.976006,109.461525 90.965019,109.806694 90.939018,110.118546 
	C91.216957,110.942574 91.520889,111.454750 91.980286,112.294052 
	C96.632713,113.950706 99.162384,117.223732 98.803291,121.634895 
	C98.520729,125.105911 99.629990,129.985413 94.037704,130.646393 
	C94.029984,129.062668 93.635384,127.693436 94.110718,126.773888 
	C97.633316,119.959351 92.836769,116.635513 88.634644,112.919868 
	C87.804123,112.185493 87.000481,110.769882 87.095001,109.753067 
	C87.499039,105.406448 86.942398,101.882423 81.782188,100.959740 
	C81.610313,100.929016 81.581070,100.100571 81.411560,99.292076 
	C87.109833,99.941559 85.933510,95.270493 86.894287,92.335663 
	C88.022804,88.888481 85.655518,87.278442 82.992081,85.633713 
	C82.338921,79.717377 77.758583,80.730431 74.151375,79.725815 
	C74.066498,79.234215 74.039932,79.036522 74.013374,78.838821 
	C75.753700,77.312988 77.494026,75.787163 80.017464,74.163940 
	C122.477242,74.096756 164.153915,74.126961 205.830582,74.157173 
	C206.494263,74.554329 207.157959,74.951492 207.963562,75.965027 
	C208.762619,77.035927 209.419739,77.490463 210.076859,77.944992 
	C210.076859,77.944992 209.995071,77.981529 209.999496,78.310516 
	C210.258392,79.741936 210.512863,80.844368 210.806610,82.282051 
	C210.820953,83.065079 210.796021,83.512840 210.396606,84.087563 
	C209.683456,85.917320 209.055542,87.619194 209.050049,89.323074 
	C208.981659,110.546913 209.003662,131.771057 209.002441,152.995117 
z"/>
<path fill="#FAFDFC" opacity="1.000000" stroke="none" 
	d="
M470.005310,113.813057 
	C471.556366,115.872406 473.089996,117.554886 475.336548,120.019508 
	C479.463165,113.589378 483.446899,107.823830 486.948517,101.778992 
	C489.524841,97.331497 492.331604,94.179214 498.099396,94.924751 
	C501.538666,95.369316 505.083191,94.953003 508.578125,95.028061 
	C511.560394,95.092117 513.096252,96.171684 511.229553,99.322037 
	C509.858093,101.636551 508.693665,104.089622 507.165466,106.292610 
	C501.165710,114.941521 495.220490,123.637032 488.919708,132.064560 
	C485.956726,136.027725 488.059753,138.908829 490.025513,141.914200 
	C494.981140,149.490555 500.052673,156.992004 505.148438,164.475311 
	C507.056458,167.277283 509.373047,169.817551 511.117798,172.709747 
	C513.045288,175.904739 512.326233,178.052734 508.085571,178.006577 
	C503.756989,177.959442 499.392883,178.307877 495.113892,177.843048 
	C493.117615,177.626236 490.541534,176.379120 489.506195,174.774475 
	C484.739532,167.386627 480.423340,159.708099 475.440063,151.278732 
	C472.117584,155.992264 469.095184,160.087463 466.285065,164.323517 
	C463.711060,168.203644 461.481934,172.315628 458.839722,176.145340 
	C458.172485,177.112473 456.528473,177.852020 455.298859,177.905548 
	C450.645660,178.108139 445.974396,178.089081 441.318939,177.913513 
	C440.131714,177.868729 438.302612,177.205902 437.971436,176.357422 
	C437.508881,175.172409 437.702576,173.217346 438.435974,172.162064 
	C443.499146,164.877319 448.815948,157.769608 453.969360,150.546600 
	C457.347839,145.811325 460.589203,140.978195 463.856445,136.240341 
	C455.574127,122.493935 444.556610,110.414948 436.234955,95.006989 
	C443.907593,95.006989 449.708344,94.869461 455.493805,95.105484 
	C456.907257,95.163147 458.786835,96.089554 459.569061,97.224922 
	C463.211609,102.511833 466.544312,108.012192 470.005310,113.813057 
z"/>
<path fill="#FBFEFC" opacity="1.000000" stroke="none" 
	d="
M277.974823,121.115120 
	C283.843353,135.687454 289.792450,149.823517 295.519196,164.049088 
	C297.941467,170.066162 299.751801,176.329910 302.184418,182.342300 
	C302.673187,183.550217 304.661285,184.747681 306.057770,184.877472 
	C309.854736,185.230347 313.706635,185.077087 317.533997,184.995773 
	C321.713409,184.906982 322.696594,186.652893 321.216125,190.470596 
	C319.484375,194.936234 318.114685,199.540985 316.458893,204.037857 
	C315.475586,206.708282 313.725800,208.169189 310.526978,208.049515 
	C304.375885,207.819412 298.209076,207.927933 292.050507,208.016418 
	C289.528381,208.052658 288.745300,207.196518 287.821014,204.578400 
	C284.253601,194.473434 279.998810,184.610489 275.977386,174.666580 
	C269.328583,158.225784 262.669617,141.789047 255.999786,125.356773 
	C252.624268,117.040604 249.302429,108.700882 245.783539,100.445457 
	C244.127197,96.559631 245.027466,94.872452 249.344604,94.980247 
	C254.003448,95.096573 258.689514,95.281776 263.321899,94.912392 
	C266.724731,94.641052 267.939636,96.408348 268.999634,99.020462 
	C271.941803,106.270836 274.970795,113.485970 277.974823,121.115120 
z"/>
<path fill="#F9FDFC" opacity="1.000000" stroke="none" 
	d="
M598.240479,95.011177 
	C601.000671,95.013763 603.295471,95.013763 606.017639,95.013763 
	C606.017639,89.046089 606.233215,83.418388 605.943054,77.816895 
	C605.744751,73.990128 607.584412,73.106125 610.842346,72.965988 
	C625.002014,72.356934 625.000061,72.318832 624.990784,86.498726 
	C624.989075,89.142174 624.990601,91.785622 624.990601,95.002426 
	C628.292969,95.002426 631.394897,95.002426 634.496826,95.002426 
	C637.473450,95.002426 640.450134,95.002426 643.622803,95.002426 
	C643.963867,100.022942 644.455933,104.843475 644.451843,109.663582 
	C644.451172,110.439865 642.306763,111.728333 641.036560,111.896187 
	C636.673828,112.472717 632.221008,112.426941 627.890259,113.146118 
	C626.760864,113.333672 625.137817,115.425156 625.117920,116.664291 
	C624.914917,129.319290 624.858032,141.981277 625.079163,154.635727 
	C625.148926,158.627853 627.188477,161.110779 631.909363,161.069855 
	C644.012573,160.964890 643.805176,161.121277 644.097229,173.057266 
	C644.208862,177.619446 643.081055,178.758362 638.465576,178.131592 
	C631.973022,177.249924 625.192383,178.108154 618.821045,176.813766 
	C611.143738,175.254074 606.026733,167.518875 606.014465,159.636826 
	C605.992676,145.646271 605.800415,131.650681 606.129028,117.667755 
	C606.242188,112.851875 604.615356,111.314461 600.123230,111.957726 
	C598.817871,112.144653 597.461182,112.021622 596.130493,111.973419 
	C593.648071,111.883499 592.770447,111.280815 593.688477,108.318420 
	C594.538757,105.574608 593.900879,102.386703 594.040466,99.400078 
	C594.150574,97.043480 594.417542,94.670952 598.240479,95.011177 
z"/>
<path fill="#F9FCFC" opacity="1.000000" stroke="none" 
	d="
M754.000671,73.146942 
	C760.408447,72.449707 762.623230,74.393822 762.063477,80.691422 
	C761.655518,85.281212 761.983704,89.936417 761.983704,95.005371 
	C767.245789,95.005371 772.190369,95.092506 777.129883,94.970901 
	C779.854553,94.903831 781.183472,95.851624 781.020203,98.710258 
	C780.896973,100.867386 780.656006,103.103867 781.064087,105.188202 
	C782.057556,110.262314 779.449097,112.472710 775.031677,112.907036 
	C771.297852,113.274155 767.499268,112.982674 762.989319,112.982674 
	C762.772034,113.954964 762.049561,115.718056 762.035522,117.486763 
	C761.937683,129.805115 762.009033,142.124664 761.976746,154.443710 
	C761.964966,158.926041 764.087646,160.975647 768.582581,161.021042 
	C782.202026,161.158600 782.247986,161.212357 780.912537,174.592529 
	C780.794617,175.773346 779.531433,177.818268 778.817383,177.810822 
	C771.092834,177.730072 763.334900,177.680054 755.659485,176.900131 
	C747.230652,176.043640 743.600769,164.738159 743.672180,158.650925 
	C743.828979,145.274551 743.261047,131.889816 743.006714,118.508156 
	C742.987915,117.520233 742.831299,116.400688 743.217407,115.562904 
	C744.766357,112.202026 742.504333,111.470329 740.343384,112.141777 
	C737.014343,113.176170 732.995972,113.272163 732.243286,110.365074 
	C731.081055,105.876389 731.926636,100.847145 732.152832,96.058136 
	C732.171265,95.666367 733.955750,95.103439 734.939331,95.059448 
	C737.900940,94.926941 740.872253,95.011658 743.005981,95.011658 
	C743.005981,89.362823 743.005981,84.138512 743.412354,78.285995 
	C746.135559,77.099167 748.535461,76.754181 750.737244,75.899117 
	C751.992065,75.411797 752.923584,74.091919 754.000671,73.146942 
z"/>
<path fill="#FAFDFC" opacity="1.000000" stroke="none" 
	d="
M324.720947,177.981201 
	C318.361572,177.925583 312.405365,177.954788 306.483337,177.519211 
	C306.133942,177.493500 305.347900,173.465469 305.977875,171.743713 
	C309.102783,163.203613 312.614807,154.804367 316.029541,146.371338 
	C319.330811,138.218658 322.656128,130.075546 326.014404,121.946182 
	C329.310272,113.967903 332.579468,105.976227 336.069855,98.083061 
	C336.632904,96.809807 338.234283,95.225166 339.446442,95.144241 
	C344.423523,94.811981 349.435669,95.005615 354.434937,95.005150 
	C357.508698,95.004860 358.687286,95.998222 357.361389,99.296097 
	C351.823303,113.070595 346.460999,126.915733 341.026520,140.731918 
	C336.699097,151.733536 332.401978,162.747467 327.979767,173.710907 
	C327.355164,175.259369 326.096710,176.552155 324.720947,177.981201 
z"/>
<path fill="#F4CD2F" opacity="1.000000" stroke="none" 
	d="
M710.931396,192.199310 
	C714.036865,191.232315 717.142273,190.265320 720.910400,189.494629 
	C723.302002,189.972382 725.031006,190.253845 726.986206,190.572128 
	C726.986206,192.552902 726.986206,194.194839 726.986206,195.836761 
	C718.373169,204.737045 707.830322,210.221146 695.796387,212.558701 
	C688.151306,214.043732 680.571777,212.760666 673.042419,210.623947 
	C662.557373,207.648453 653.935242,201.983948 646.315857,193.554565 
	C647.179077,191.995132 648.231995,190.316315 649.539917,190.086029 
	C651.889526,189.672363 654.392273,190.128403 656.830994,190.221039 
	C663.988403,191.493805 671.145752,192.766571 678.911255,194.333298 
	C680.364075,194.730789 681.208740,194.834335 682.053406,194.937866 
	C682.053406,194.937881 682.015930,194.985184 682.305359,195.268707 
	C691.343933,194.856430 700.095398,194.186478 708.838135,193.417511 
	C709.565918,193.353500 710.235046,192.621140 710.931396,192.199310 
z"/>
<path fill="#F9CF2F" opacity="1.000000" stroke="none" 
	d="
M89.000092,209.003052 
	C91.638321,210.966309 94.239410,212.989319 97.022461,214.719666 
	C97.164322,214.807861 98.871094,212.379135 100.675346,210.060837 
	C100.904678,210.631500 101.290077,211.590500 101.905159,213.121017 
	C104.007324,211.250671 105.722862,209.282684 107.845085,207.974380 
	C109.576317,206.907089 111.790131,206.095367 113.795975,206.082169 
	C134.238205,205.947769 154.681992,206.058456 175.124496,205.946899 
	C178.816193,205.926773 180.320480,207.287033 180.020615,210.935089 
	C179.741837,214.326691 179.636017,217.737030 184.573975,218.674759 
	C184.451492,217.792877 184.096420,216.977493 184.304123,216.347733 
	C184.669220,215.240784 185.378601,214.247406 185.943817,213.206482 
	C186.948151,214.044144 188.508514,214.695267 188.862671,215.751007 
	C190.598328,220.925018 190.788376,221.052750 194.690277,217.462677 
	C197.421356,218.813400 197.318695,217.056824 197.813019,214.930252 
	C196.527771,215.420105 195.761414,215.712189 194.995041,216.004272 
	C194.348221,215.216660 193.701401,214.429047 193.423615,213.320618 
	C195.520721,212.032089 197.248764,211.064377 198.976807,210.096649 
	C198.979034,212.245468 198.644241,214.459412 199.044724,216.531250 
	C200.415756,223.624084 188.608749,231.684830 181.195877,226.677734 
	C178.121109,224.600845 173.661560,221.630783 174.967041,216.055283 
	C175.368317,214.341461 175.029343,212.454300 175.029343,210.347031 
	C172.622437,209.866684 170.332657,209.409729 167.138580,208.906403 
	C155.312607,208.870987 144.390060,208.806412 133.469711,208.933304 
	C129.581284,208.978470 125.698242,209.488205 121.812744,209.785889 
	C118.033791,209.785889 114.254837,209.785889 109.961990,209.785889 
	C109.961990,212.838699 109.890114,215.438156 109.979317,218.032074 
	C110.104156,221.662354 105.802544,227.406494 101.752045,227.861145 
	C92.934677,228.850861 85.993874,223.705963 86.038239,214.397293 
	C86.045555,212.862228 86.023758,211.327011 86.357056,209.401642 
	C87.465836,209.008621 88.232956,209.005844 89.000092,209.003052 
z"/>
<path fill="#FAD123" opacity="1.000000" stroke="none" 
	d="
M88.962799,208.654938 
	C88.232956,209.005844 87.465836,209.008621 86.315308,209.019501 
	C80.740906,210.104904 77.278801,207.367416 74.103333,202.944489 
	C74.021408,195.444519 74.063805,188.723206 74.489197,181.898651 
	C75.194275,181.438248 75.793846,181.084518 75.798302,180.723450 
	C75.957657,167.824448 76.025085,154.924316 76.182190,142.025284 
	C76.369835,126.618935 76.732567,111.213638 76.765259,95.807350 
	C76.771698,92.772964 79.246902,88.597244 74.053070,86.554535 
	C74.084442,84.085892 74.147072,82.052803 74.209694,80.019722 
	C77.758583,80.730431 82.338921,79.717377 82.621078,85.681519 
	C81.168793,88.643188 79.236549,91.167305 79.148369,93.754288 
	C78.790924,104.240273 79.266159,114.754204 78.925766,125.241318 
	C78.587189,135.672729 80.136490,146.053665 79.116760,156.516068 
	C78.489311,162.953629 79.003563,169.502457 79.005188,176.001328 
	C79.003853,178.000946 79.280281,180.047012 78.955040,181.992493 
	C77.158363,192.739670 81.150238,201.223206 88.962799,208.654938 
z"/>
<path fill="#F3D040" opacity="1.000000" stroke="none" 
	d="
M209.004120,153.462418 
	C209.003662,131.771057 208.981659,110.546913 209.050049,89.323074 
	C209.055542,87.619194 209.683456,85.917320 210.473129,84.555168 
	C210.940491,111.828499 210.941086,138.761230 211.009384,165.693771 
	C211.013824,167.447739 211.537613,169.200378 211.819809,170.953644 
	C211.861145,171.411789 211.902466,171.869934 211.598923,172.690643 
	C210.835632,173.366470 210.417206,173.679764 209.998810,173.993057 
	C209.667801,167.305283 209.336792,160.617493 209.004120,153.462418 
z"/>
<path fill="#E7F8FD" opacity="1.000000" stroke="none" 
	d="
M527.464600,143.912766 
	C528.586670,143.556870 530.164001,143.096603 531.759033,143.023315 
	C545.132568,142.408722 558.599792,144.354172 571.899963,141.127884 
	C575.194458,140.328705 578.521484,138.886581 582.455811,140.733673 
	C585.086365,141.968689 586.952087,139.539520 587.124512,136.099503 
	C587.288208,132.835281 588.470093,129.622086 589.516907,126.192604 
	C589.879578,130.323563 589.881348,134.649628 589.994751,138.972778 
	C590.088623,142.551086 588.867310,144.116470 584.870911,144.074295 
	C565.891785,143.874054 546.909363,143.986603 527.464600,143.912766 
z"/>
<path fill="#ECFAFD" opacity="1.000000" stroke="none" 
	d="
M376.463989,143.905075 
	C383.527161,143.227905 391.045319,142.446457 398.583588,142.080460 
	C404.649231,141.785950 410.742676,142.113754 416.817413,141.941025 
	C421.663849,141.803207 426.496429,141.171143 431.342773,141.039871 
	C437.667236,140.868591 438.381592,140.337509 438.997223,134.040054 
	C439.077362,133.220139 439.215759,132.405930 439.575958,131.299042 
	C440.544464,144.006332 440.544464,143.995590 427.876160,143.986694 
	C410.893311,143.974777 393.910492,143.981506 376.463989,143.905075 
z"/>
<path fill="#DACB81" opacity="1.000000" stroke="none" 
	d="
M205.756927,73.715355 
	C164.153915,74.126961 122.477242,74.096756 80.319839,74.037399 
	C81.018227,73.668846 82.196991,73.034203 83.376526,73.032776 
	C123.491928,72.984306 163.607391,72.994644 203.722855,73.010307 
	C204.376358,73.010559 205.029800,73.181984 205.756927,73.715355 
z"/>
<path fill="#F8CE2C" opacity="1.000000" stroke="none" 
	d="
M199.013092,210.078537 
	C197.248764,211.064377 195.520721,212.032089 193.397568,212.999908 
	C192.979004,211.850647 193.076462,210.683640 192.911728,209.554901 
	C192.084381,203.885757 192.035843,203.973267 197.580811,205.588913 
	C198.651093,205.900757 200.971466,205.479645 201.066193,205.040726 
	C202.211166,199.735840 206.438934,200.441879 210.491470,200.042862 
	C211.278091,202.672195 211.216293,204.855453 207.605499,205.252365 
	C206.562683,205.367004 205.674393,206.887238 203.989563,207.886353 
	C201.865570,208.666962 200.467239,209.324310 199.068924,209.981659 
	C199.068924,209.981659 199.049377,210.060410 199.013092,210.078537 
z"/>
<path fill="#CECA99" opacity="1.000000" stroke="none" 
	d="
M211.893616,170.493835 
	C211.537613,169.200378 211.013824,167.447739 211.009384,165.693771 
	C210.941086,138.761230 210.940491,111.828499 210.847610,84.428215 
	C210.796021,83.512840 210.820953,83.065079 210.875793,81.881943 
	C210.905197,80.324051 210.904663,79.501526 210.904144,78.678993 
	C211.270538,80.191612 211.953796,81.703667 211.956482,83.216934 
	C212.007950,112.155876 211.979416,141.094955 211.893616,170.493835 
z"/>
<path fill="#EAF9FE" opacity="1.000000" stroke="none" 
	d="
M587.002441,156.647446 
	C582.474121,150.910400 576.061707,153.412949 570.343079,153.196579 
	C569.830261,153.177170 569.372192,154.863861 568.683838,155.553864 
	C567.771912,156.468063 566.658081,157.180893 565.261597,157.973145 
	C567.025452,151.273682 571.739929,149.013138 578.427368,149.966629 
	C579.882996,150.174164 581.394836,149.968552 582.880249,149.990082 
	C584.784180,150.017685 586.687622,150.082596 588.591248,150.131424 
	C588.116760,152.188019 587.642212,154.244614 587.002441,156.647446 
z"/>
<path fill="#DAD878" opacity="1.000000" stroke="none" 
	d="
M74.106201,182.001907 
	C74.063805,188.723206 74.021408,195.444519 73.951645,202.640320 
	C73.620239,201.777954 73.054108,200.441650 73.051155,199.104111 
	C73.000191,176.044037 73.018623,152.983810 73.281464,129.460800 
	C73.541061,128.997986 73.915634,128.999161 73.947067,129.467087 
	C74.021072,147.290649 74.063644,164.646271 74.106201,182.001907 
z"/>
<path fill="#E8D57D" opacity="1.000000" stroke="none" 
	d="
M73.915634,128.999161 
	C73.915634,128.999161 73.541061,128.997986 73.353775,128.996841 
	C73.192154,112.430382 73.217834,95.865067 73.628441,79.069290 
	C74.039932,79.036522 74.066498,79.234215 74.151375,79.725815 
	C74.147072,82.052803 74.084442,84.085892 74.015762,87.022949 
	C73.978355,101.617668 73.946999,115.308418 73.915634,128.999161 
z"/>
<path fill="#DECB5C" opacity="1.000000" stroke="none" 
	d="
M727.329285,195.821167 
	C726.986206,194.194839 726.986206,192.552902 726.986206,190.572128 
	C725.031006,190.253845 723.302002,189.972382 721.278381,189.436798 
	C724.747009,188.232559 728.510254,187.282440 732.273499,186.332306 
	C732.750977,186.917648 733.228455,187.503006 733.705933,188.088348 
	C731.694702,190.660751 729.683533,193.233170 727.329285,195.821167 
z"/>
<path fill="#CDCD94" opacity="1.000000" stroke="none" 
	d="
M122.294861,209.856262 
	C125.698242,209.488205 129.581284,208.978470 133.469711,208.933304 
	C144.390060,208.806412 155.312607,208.870987 166.723145,208.887177 
	C165.860901,209.274902 164.511108,209.942947 163.158585,209.948502 
	C149.698303,210.003845 136.237579,209.949799 122.294861,209.856262 
z"/>
<path fill="#CDC480" opacity="1.000000" stroke="none" 
	d="
M656.837524,189.807007 
	C654.392273,190.128403 651.889526,189.672363 649.539917,190.086029 
	C648.231995,190.316315 647.179077,191.995132 646.000488,193.417633 
	C644.708984,191.925110 643.428284,190.036087 642.147583,188.147064 
	C642.568054,187.570602 642.988525,186.994141 643.409058,186.417679 
	C647.887390,187.409439 652.365784,188.401199 656.837524,189.807007 
z"/>
<path fill="#D3C66F" opacity="1.000000" stroke="none" 
	d="
M710.502258,192.114807 
	C710.235046,192.621140 709.565918,193.353500 708.838135,193.417511 
	C700.095398,194.186478 691.343933,194.856430 682.327332,195.242249 
	C691.397644,193.964951 700.735352,192.997635 710.502258,192.114807 
z"/>
<path fill="#F8CE2C" opacity="1.000000" stroke="none" 
	d="
M211.310272,194.934097 
	C208.958405,195.020096 206.852951,195.020096 204.063370,195.020096 
	C204.550232,191.166901 204.961502,187.912003 205.489624,183.732224 
	C206.987457,187.364441 208.121948,190.115524 209.892654,192.945526 
	C210.707550,193.034073 210.886200,193.043716 211.064880,193.053360 
	C211.228806,193.651611 211.392746,194.249847 211.310272,194.934097 
z"/>
<path fill="#EBF5FA" opacity="1.000000" stroke="none" 
	d="
M753.552856,73.068787 
	C752.923584,74.091919 751.992065,75.411797 750.737244,75.899117 
	C748.535461,76.754181 746.135559,77.099167 743.492065,77.825073 
	C742.639221,74.413612 743.959839,72.609039 747.792114,72.962654 
	C749.549011,73.124771 751.333191,72.990501 753.552856,73.068787 
z"/>
<path fill="#F3D040" opacity="1.000000" stroke="none" 
	d="
M210.889069,186.637115 
	C210.345566,183.201508 209.882629,179.390472 209.735413,175.603058 
	C210.405365,176.096497 210.759567,176.566315 211.113785,177.036148 
	C211.065735,180.111343 211.017670,183.186523 210.889069,186.637115 
z"/>
<path fill="#EAF9FE" opacity="1.000000" stroke="none" 
	d="
M561.588501,159.939209 
	C560.098877,160.732803 558.233826,161.578049 556.159790,162.156281 
	C557.704956,161.256470 559.458984,160.623657 561.588501,159.939209 
z"/>
<path fill="#F8CE2C" opacity="1.000000" stroke="none" 
	d="
M211.417999,176.914719 
	C210.759567,176.566315 210.405365,176.096497 210.023743,175.317902 
	C209.997177,174.839828 209.998001,174.670517 209.998810,174.247131 
	C210.417206,173.679764 210.835632,173.366470 211.528473,173.030167 
	C211.775986,174.269196 211.749100,175.531235 211.417999,176.914719 
z"/>
<path fill="#F9CF2F" opacity="1.000000" stroke="none" 
	d="
M199.425964,209.962601 
	C200.467239,209.324310 201.865570,208.666962 203.662628,208.016663 
	C202.635239,208.663635 201.209137,209.303589 199.425964,209.962601 
z"/>
<path fill="#EAF9FE" opacity="1.000000" stroke="none" 
	d="
M553.605530,162.089111 
	C552.820068,162.322021 551.640076,162.476425 550.233887,162.402252 
	C551.075378,162.119308 552.143250,162.064957 553.605530,162.089111 
z"/>
<path fill="#F3D040" opacity="1.000000" stroke="none" 
	d="
M210.850281,78.479126 
	C210.904663,79.501526 210.905197,80.324051 210.836533,81.546692 
	C210.512863,80.844368 210.258392,79.741936 210.032486,78.280090 
	C210.356628,77.937004 210.601761,78.056534 210.850281,78.479126 
z"/>
<path fill="#F3D040" opacity="1.000000" stroke="none" 
	d="
M209.984833,77.659760 
	C209.419739,77.490463 208.762619,77.035927 208.075378,76.249283 
	C208.661102,76.402954 209.276962,76.888741 209.984833,77.659760 
z"/>
<path fill="#D3C66F" opacity="1.000000" stroke="none" 
	d="
M681.904358,194.626617 
	C681.208740,194.834335 680.364075,194.730789 679.292236,194.401062 
	C679.961853,194.221710 680.858582,194.268539 681.904358,194.626617 
z"/>
<path fill="#F3D040" opacity="1.000000" stroke="none" 
	d="
M211.318298,192.959839 
	C210.886200,193.043716 210.707550,193.034073 210.260712,193.012207 
	C210.180679,192.440567 210.368835,191.881134 210.819885,191.171082 
	C211.245758,191.635742 211.408737,192.251038 211.318298,192.959839 
z"/>
<path fill="#F8CE2C" opacity="1.000000" stroke="none" 
	d="
M211.357025,190.917847 
	C211.034210,190.276047 211.020126,189.497284 211.019684,188.329559 
	C211.244141,188.887375 211.454941,189.834122 211.357025,190.917847 
z"/>
<path fill="#EAF9FE" opacity="1.000000" stroke="none" 
	d="
M563.749329,158.136566 
	C563.872253,158.483902 563.653870,158.703247 563.134155,158.908386 
	C563.098267,158.672455 563.290039,158.377258 563.749329,158.136566 
z"/>

<path fill="#FCD12B" opacity="1.000000" stroke="none" 
	d="
M110.999847,170.000000 
	C105.863663,167.145920 100.727478,164.291840 95.421768,160.924133 
	C95.502052,159.607407 95.751854,158.804306 96.376442,158.001038 
	C97.500824,158.000763 98.250412,158.000687 99.000000,158.000610 
	C101.269836,162.340622 105.655434,163.816910 112.184677,162.862289 
	C113.927620,162.607483 116.296318,162.737457 117.555344,163.731918 
	C123.480225,168.411865 125.297134,168.559814 131.269409,164.616486 
	C132.829315,163.586517 134.997177,163.217819 136.928848,163.054520 
	C146.115219,162.278015 155.313354,161.627121 164.515106,161.057922 
	C166.275803,160.949020 168.071671,161.408478 169.851303,161.605713 
	C169.893524,162.017303 169.935760,162.428894 169.977997,162.840485 
	C168.082581,163.775940 166.187164,164.711395 164.291748,165.646851 
	C164.251770,166.128601 164.211792,166.610352 164.171814,167.092102 
	C167.017914,167.731018 169.949890,168.128799 172.677444,169.100464 
	C174.279907,169.671326 175.557327,171.154678 176.738953,172.614594 
	C176.329056,173.002487 176.161179,173.003372 175.629257,173.008072 
	C173.509338,173.674576 171.753448,174.337280 169.640259,175.039703 
	C165.775284,176.327164 162.288879,177.643463 158.736526,178.747482 
	C158.215103,178.909531 157.421600,177.878387 156.683578,177.712570 
	C151.826187,176.621231 146.562195,173.934280 142.163147,174.947449 
	C134.078995,176.809326 126.188461,177.761978 117.836609,176.757141 
	C117.110542,176.338593 116.554840,176.164108 115.963181,175.643677 
	C114.284767,173.531830 112.642311,171.765915 110.999847,170.000000 
z"/>
<path fill="#FCD12B" opacity="1.000000" stroke="none" 
	d="
M79.387955,175.916107 
	C79.003563,169.502457 78.489311,162.953629 79.116760,156.516068 
	C80.136490,146.053665 78.587189,135.672729 78.925766,125.241318 
	C79.266159,114.754204 78.790924,104.240273 79.148369,93.754288 
	C79.236549,91.167305 81.168793,88.643188 82.624306,86.042366 
	C85.655518,87.278442 88.022804,88.888481 86.894287,92.335663 
	C85.933510,95.270493 87.109833,99.941559 81.411560,99.292076 
	C81.581070,100.100571 81.610313,100.929016 81.782188,100.959740 
	C86.942398,101.882423 87.499039,105.406448 87.095001,109.753067 
	C87.000481,110.769882 87.804123,112.185493 88.634644,112.919868 
	C92.836769,116.635513 97.633316,119.959351 94.110718,126.773888 
	C93.635384,127.693436 94.029984,129.062668 94.030365,130.625702 
	C94.038979,131.027725 94.077927,131.046982 93.684677,131.032440 
	C91.704414,130.826553 90.117416,130.635178 88.530411,130.443802 
	C89.071907,131.074448 89.613411,131.705093 90.154915,132.335739 
	C88.437126,133.223831 86.719337,134.111923 84.810265,134.769699 
	C84.132980,134.763184 83.646988,134.986969 83.160995,135.210754 
	C83.773796,135.807175 84.386589,136.403595 84.999695,137.000000 
	C85.000000,137.000000 85.002136,137.001221 85.001602,137.461807 
	C84.333954,143.614929 83.666824,149.307465 82.716644,155.035446 
	C82.112404,155.374756 81.791214,155.678619 81.470016,155.982483 
	C81.678581,156.162979 81.887146,156.343491 82.095711,156.523987 
	C82.397247,156.015991 82.698776,155.507996 83.375160,155.000000 
	C84.499695,155.000000 85.249382,155.000000 86.138840,155.320251 
	C86.519485,156.760391 86.760353,157.880295 86.654205,158.966171 
	C84.212761,158.034866 82.706749,158.078735 82.999695,161.000000 
	C82.333527,164.798706 81.714493,168.606644 80.973312,172.390656 
	C80.742188,173.570633 80.180878,174.685959 79.387955,175.916107 
M82.477890,139.586304 
	C81.867798,140.275040 81.257706,140.963776 80.647614,141.652512 
	C81.131172,141.959564 81.614731,142.266617 82.098289,142.573669 
	C82.342804,141.746643 82.587326,140.919617 82.477890,139.586304 
M82.660149,110.524025 
	C83.302483,110.042747 83.944817,109.561470 84.587158,109.080200 
	C84.282913,108.786140 83.978668,108.492088 83.674416,108.198036 
	C83.199081,108.810143 82.723740,109.422256 82.660149,110.524025 
M81.437485,89.706207 
	C81.707367,89.989082 81.977242,90.271957 82.247116,90.554832 
	C82.364197,90.442955 82.589233,90.239937 82.582817,90.232338 
	C82.330933,89.933998 82.057976,89.653450 81.437485,89.706207 
z"/>
<path fill="#F9CF2F" opacity="1.000000" stroke="none" 
	d="
M118.006966,177.001221 
	C126.188461,177.761978 134.078995,176.809326 142.163147,174.947449 
	C146.562195,173.934280 151.826187,176.621231 156.683578,177.712570 
	C157.421600,177.878387 158.215103,178.909531 158.736526,178.747482 
	C162.288879,177.643463 165.775284,176.327164 169.675568,175.388580 
	C170.711685,177.133804 171.355225,178.569824 171.998779,180.005859 
	C172.981949,182.389587 174.104721,184.728958 174.882919,187.177826 
	C175.217300,188.230026 174.836472,189.509506 174.744904,191.436264 
	C171.405914,189.193756 168.985306,187.568054 166.583252,185.954803 
	C158.695465,196.287048 145.657486,197.485916 135.251251,192.519165 
	C132.303024,191.112015 127.792099,192.276810 123.743752,192.549622 
	C120.509232,192.767593 117.075195,190.024933 112.430984,188.041779 
	C114.836830,186.911423 115.700676,186.505554 115.836388,186.441803 
	C113.220528,183.447983 110.448563,180.462906 107.958817,177.258530 
	C107.494133,176.660446 108.161552,175.182739 108.689423,174.415863 
	C111.608543,179.650894 112.432320,179.861160 118.006966,177.001221 
M130.373138,180.973694 
	C125.967270,180.372910 121.561394,179.772125 117.155525,179.171341 
	C126.400528,187.629242 136.416428,192.936600 149.049774,189.981537 
	C155.761917,188.411545 166.525909,182.324005 167.669571,179.238907 
	C161.910034,180.075577 156.205704,181.356354 150.454926,181.618622 
	C144.087158,181.909027 137.676926,181.267960 130.373138,180.973694 
z"/>
<path fill="#F9CF2F" opacity="1.000000" stroke="none" 
	d="
M180.115540,182.039307 
	C182.954163,181.362473 185.392197,180.719772 188.144547,179.994217 
	C186.894791,176.735321 182.880951,174.396210 187.086044,171.402161 
	C189.747650,169.507111 191.700714,169.051453 193.082764,172.882278 
	C193.654480,174.466965 195.025101,176.091965 196.474533,176.962433 
	C199.404861,178.722321 200.021927,181.013702 197.265503,183.070236 
	C192.706863,186.471390 187.761703,189.220505 181.741440,187.912064 
	C180.514511,187.645386 178.990402,186.622452 178.545395,185.555298 
	C178.190857,184.705063 179.271469,183.256424 180.115540,182.039307 
z"/>
<path fill="#F8CE2C" opacity="1.000000" stroke="none" 
	d="
M87.001221,159.000183 
	C86.760353,157.880295 86.519485,156.760391 86.299408,154.953125 
	C86.670273,151.513031 87.020348,148.760315 87.367584,146.029892 
	C88.323517,146.388382 89.189804,146.713242 90.125229,147.378357 
	C90.470116,150.207062 90.745880,152.695526 91.344086,155.441299 
	C92.984489,155.791641 94.302246,155.962936 95.620422,155.966171 
	C121.412872,156.029465 147.205368,156.073196 172.949280,156.429352 
	C172.266190,157.159470 171.631683,157.581192 170.997162,158.002899 
	C157.978180,158.002731 144.959198,158.002579 131.003479,158.001770 
	C123.891548,157.673798 117.719154,157.217300 111.539742,157.082123 
	C109.034378,157.027328 106.513710,157.672714 104.000000,157.999481 
	C102.611107,157.999710 101.222221,157.999954 99.416664,158.000397 
	C98.250412,158.000687 97.500824,158.000763 96.074425,157.870209 
	C94.265434,157.826172 93.133255,157.912781 91.662766,158.001587 
	C90.548309,158.336472 89.772171,158.669144 88.663574,159.001434 
	C87.887825,159.000763 87.444519,159.000473 87.001221,159.000183 
z"/>
<path fill="#F9CF2F" opacity="1.000000" stroke="none" 
	d="
M104.263550,158.282410 
	C106.513710,157.672714 109.034378,157.027328 111.539742,157.082123 
	C117.719154,157.217300 123.891548,157.673798 130.535034,158.002411 
	C129.174194,159.002090 127.290245,160.937332 125.525604,160.834045 
	C118.505882,160.423218 111.523384,159.376511 104.263550,158.282410 
z"/>
<path fill="#F9CF2F" opacity="1.000000" stroke="none" 
	d="
M175.993286,173.004272 
	C176.161179,173.003372 176.329056,173.002487 176.748779,173.000488 
	C177.939117,173.616302 179.760101,174.619522 179.684402,174.792465 
	C178.451920,177.607956 176.979309,180.318314 174.679062,182.761902 
	C174.857971,181.366486 175.036896,179.971069 175.254974,177.951263 
	C175.527176,175.886002 175.760223,174.445129 175.993286,173.004272 
z"/>
<path fill="#EFC625" opacity="1.000000" stroke="none" 
	d="
M117.836609,176.757141 
	C112.432320,179.861160 111.608543,179.650894 109.031807,174.359161 
	C108.991264,173.997559 108.999664,173.502014 109.359955,173.289978 
	C111.813202,174.048508 113.906166,175.019073 115.999138,175.989624 
	C116.554840,176.164108 117.110542,176.338593 117.836609,176.757141 
z"/>
<path fill="#F9CF2F" opacity="1.000000" stroke="none" 
	d="
M171.075424,158.373352 
	C171.631683,157.581192 172.266190,157.159470 173.370605,156.396057 
	C175.243500,156.002365 176.646515,155.950378 178.374817,155.949951 
	C179.133194,156.061890 179.566284,156.122284 179.999664,156.485687 
	C180.000076,157.192505 180.000183,157.596329 180.000275,158.000137 
	C177.161072,159.552490 174.345657,161.388000 171.075424,158.373352 
z"/>
<path fill="#EFC625" opacity="1.000000" stroke="none" 
	d="
M175.629257,173.008072 
	C175.760223,174.445129 175.527176,175.886002 175.147369,177.665771 
	C174.182831,178.586029 173.365051,179.167374 172.273026,179.877289 
	C171.355225,178.569824 170.711685,177.133804 170.032852,175.348877 
	C171.753448,174.337280 173.509338,173.674576 175.629257,173.008072 
z"/>
<path fill="#F9CF2F" opacity="1.000000" stroke="none" 
	d="
M115.963181,175.643677 
	C113.906166,175.019073 111.813202,174.048508 109.361694,173.042175 
	C109.550919,172.177856 110.098686,171.349289 110.823151,170.260376 
	C112.642311,171.765915 114.284767,173.531830 115.963181,175.643677 
z"/>
<path fill="#FCD12B" opacity="1.000000" stroke="none" 
	d="
M88.996033,159.001831 
	C89.772171,158.669144 90.548309,158.336472 91.769897,158.260468 
	C92.476707,159.011429 92.738068,159.505722 92.999428,160.000000 
	C92.506714,162.165588 91.966988,164.210297 89.260117,160.843536 
	C88.998451,159.889893 88.997238,159.445862 88.996033,159.001831 
z"/>
<path fill="#F9CF2F" opacity="1.000000" stroke="none" 
	d="
M88.663574,159.001434 
	C88.997238,159.445862 88.998451,159.889893 88.999832,160.666962 
	C87.285561,161.000000 85.571129,161.000000 83.428192,161.000000 
	C82.706749,158.078735 84.212761,158.034866 86.654205,158.966171 
	C87.444519,159.000473 87.887825,159.000763 88.663574,159.001434 
z"/>
<path fill="#F9CF2F" opacity="1.000000" stroke="none" 
	d="
M93.258347,160.107452 
	C92.738068,159.505722 92.476707,159.011429 92.108215,158.258270 
	C93.133255,157.912781 94.265434,157.826172 95.699631,157.870392 
	C95.751854,158.804306 95.502052,159.607407 95.126579,160.704941 
	C94.506355,160.737900 94.011810,160.476395 93.258347,160.107452 
z"/>
<path fill="#F8CE2C" opacity="1.000000" stroke="none" 
	d="
M180.416702,158.000137 
	C180.000183,157.596329 180.000076,157.192505 180.411926,156.410355 
	C182.216095,156.082214 183.608307,156.132416 185.000381,156.485611 
	C184.999954,157.192612 184.999680,157.596603 184.999390,158.000610 
	C183.610641,158.000443 182.221878,158.000290 180.416702,158.000137 
z"/>
<path fill="#F8CE2C" opacity="1.000000" stroke="none" 
	d="
M194.995880,216.252289 
	C195.761414,215.712189 196.527771,215.420105 197.813019,214.930252 
	C197.318695,217.056824 197.421356,218.813400 194.998703,217.300293 
	C194.995728,216.996338 194.996704,216.500305 194.995880,216.252289 
z"/>
<path fill="#F9CF2F" opacity="1.000000" stroke="none" 
	d="
M86.675079,179.151550 
	C86.700905,179.789398 86.402977,180.351654 86.105042,180.913910 
	C85.603065,180.646484 85.101089,180.379074 84.599113,180.111664 
	C85.183182,179.766418 85.767250,179.421188 86.675079,179.151550 
z"/>
<path fill="#F9CF2F" opacity="1.000000" stroke="none" 
	d="
M185.165527,158.234436 
	C184.999680,157.596603 184.999954,157.192612 185.330856,156.412201 
	C186.107452,156.084930 186.553436,156.134094 186.999405,156.183258 
	C187.268692,156.627884 187.537979,157.072525 187.903625,157.758591 
	C187.110550,158.156097 186.221100,158.312180 185.165527,158.234436 
z"/>
<path fill="#ECFAFD" opacity="1.000000" stroke="none" 
	d="
M674.076111,159.234558 
	C681.146545,162.199280 688.568542,163.568268 696.066467,160.889908 
	C699.406433,159.696793 702.245605,157.101746 705.632935,155.013092 
	C705.118164,161.684555 699.207886,163.240692 694.367676,164.480911 
	C687.160278,166.327637 679.639709,166.221924 674.076111,159.234558 
z"/>
<path fill="#ECFAFD" opacity="1.000000" stroke="none" 
	d="
M672.143066,157.356415 
	C672.319763,157.254318 672.633484,157.345520 673.032959,157.697388 
	C672.790710,157.921478 672.511169,157.785355 672.143066,157.356415 
z"/>
<path fill="#D0D0A1" opacity="1.000000" stroke="none" 
	d="
M162.127975,91.800758 
	C140.689529,91.855598 119.251091,91.910439 97.382309,91.649002 
	C96.951965,91.332726 96.976364,90.858788 96.976364,90.858788 
	C97.712044,90.845505 98.447716,90.832222 99.841888,90.827713 
	C100.694412,90.803276 100.888443,90.770058 101.082474,90.736847 
	C121.083435,90.783867 141.084396,90.830887 161.567108,91.102600 
	C162.048843,91.327293 162.127975,91.800758 162.127975,91.800758 
z"/>
<path fill="#DECB5C" opacity="1.000000" stroke="none" 
	d="
M162.577591,91.874359 
	C162.127975,91.800758 162.048843,91.327293 162.036896,91.086716 
	C166.742371,90.566910 171.457779,90.109047 176.177780,90.055450 
	C181.605011,89.993813 187.036316,90.289902 192.737183,90.756699 
	C183.014755,91.371185 173.020981,91.659576 162.577591,91.874359 
z"/>
<path fill="#DECB5C" opacity="1.000000" stroke="none" 
	d="
M193.545258,111.950745 
	C193.206879,105.279640 193.249374,98.537880 193.111359,91.408218 
	C193.928040,91.893013 195.744232,92.726929 195.787689,93.644791 
	C196.042969,99.035507 195.954071,104.448067 195.780106,109.846779 
	C195.757645,110.543739 194.572617,111.203239 193.545258,111.950745 
z"/>
<path fill="#DECB5C" opacity="1.000000" stroke="none" 
	d="
M96.721146,90.615433 
	C96.976364,90.858788 96.951965,91.332726 96.911926,91.566795 
	C95.415634,91.926880 93.959373,92.052887 91.632523,92.254227 
	C91.409935,97.561577 91.186996,102.877464 90.897552,108.670715 
	C90.606430,104.138298 89.969101,99.100418 90.307434,94.128937 
	C90.520370,90.999901 93.066841,89.438393 96.721146,90.615433 
z"/>
<path fill="#DECB5C" opacity="1.000000" stroke="none" 
	d="
M90.939018,110.118546 
	C91.295425,110.314850 91.625832,110.823006 91.890533,111.649048 
	C91.520889,111.454750 91.216957,110.942574 90.939018,110.118546 
z"/>
<path fill="#DECB5C" opacity="1.000000" stroke="none" 
	d="
M100.954231,90.617035 
	C100.888443,90.770058 100.694412,90.803276 100.208420,90.790543 
	C100.219635,90.662132 100.522812,90.579674 100.954231,90.617035 
z"/>
<path fill="#FBD22E" opacity="1.000000" stroke="none" 
	d="
M73.947067,129.467087 
	C73.946999,115.308418 73.978355,101.617668 74.047012,87.458511 
	C79.246902,88.597244 76.771698,92.772964 76.765259,95.807350 
	C76.732567,111.213638 76.369835,126.618935 76.182190,142.025284 
	C76.025085,154.924316 75.957657,167.824448 75.798302,180.723450 
	C75.793846,181.084518 75.194275,181.438248 74.489204,181.898651 
	C74.063644,164.646271 74.021072,147.290649 73.947067,129.467087 
z"/>
<path fill="#F9CF2F" opacity="1.000000" stroke="none" 
	d="
M89.794479,144.968277 
	C89.794479,144.968277 89.957100,145.439117 89.984406,145.966522 
	C90.018929,146.680923 90.026131,146.867889 90.033333,147.054840 
	C90.033333,147.054840 90.019417,147.015457 90.037758,147.026794 
	C89.189804,146.713242 88.323517,146.388382 87.367584,146.029892 
	C87.020348,148.760315 86.670273,151.513031 86.159622,154.632874 
	C85.249382,155.000000 84.499695,155.000000 83.375008,155.000000 
	C83.000000,155.000000 82.999695,155.000000 82.999695,155.000000 
	C83.666824,149.307465 84.333954,143.614929 85.411575,137.463684 
	C86.879654,138.072266 88.280159,138.972809 88.902122,140.251923 
	C89.577278,141.640381 89.527916,143.381134 89.794479,144.968277 
z"/>
<path fill="#F8CE2C" opacity="1.000000" stroke="none" 
	d="
M89.871315,144.578644 
	C89.527916,143.381134 89.577278,141.640381 88.902122,140.251923 
	C88.280159,138.972809 86.879654,138.072266 85.412109,137.003082 
	C85.002136,137.001221 85.000000,137.000000 85.000000,136.666672 
	C85.000504,135.888901 85.001015,135.444443 85.001541,135.000000 
	C86.719337,134.111923 88.437126,133.223831 90.154915,132.335739 
	C89.613411,131.705093 89.071907,131.074448 88.530411,130.443802 
	C90.117416,130.635178 91.704414,130.826553 93.684677,131.032440 
	C89.801117,134.516296 91.206558,139.771210 89.871315,144.578644 
z"/>
<path fill="#F8CE2C" opacity="1.000000" stroke="none" 
	d="
M82.654869,139.839447 
	C82.587326,140.919617 82.342804,141.746643 82.098289,142.573669 
	C81.614731,142.266617 81.131172,141.959564 80.647614,141.652512 
	C81.257706,140.963776 81.867798,140.275040 82.654869,139.839447 
z"/>
<path fill="#F8CE2C" opacity="1.000000" stroke="none" 
	d="
M82.454269,110.279198 
	C82.723740,109.422256 83.199081,108.810143 83.674423,108.198036 
	C83.978668,108.492088 84.282913,108.786140 84.587158,109.080200 
	C83.944817,109.561470 83.302483,110.042747 82.454269,110.279198 
z"/>
<path fill="#FAD123" opacity="1.000000" stroke="none" 
	d="
M84.810257,134.769684 
	C85.001015,135.444443 85.000504,135.888901 84.999695,136.666672 
	C84.386589,136.403595 83.773796,135.807175 83.160995,135.210754 
	C83.646988,134.986969 84.132980,134.763184 84.810257,134.769684 
z"/>
<path fill="#FBD22E" opacity="1.000000" stroke="none" 
	d="
M83.000153,155.000000 
	C82.698776,155.507996 82.397247,156.015991 82.095711,156.523987 
	C81.887146,156.343491 81.678581,156.162979 81.470016,155.982483 
	C81.791214,155.678619 82.112404,155.374756 82.716644,155.035446 
	C82.999695,155.000000 83.000000,155.000000 83.000153,155.000000 
z"/>
<path fill="#FAD123" opacity="1.000000" stroke="none" 
	d="
M81.612633,89.538391 
	C82.057976,89.653450 82.330933,89.933998 82.582817,90.232338 
	C82.589233,90.239937 82.364197,90.442955 82.247116,90.554832 
	C81.977242,90.271957 81.707367,89.989082 81.612633,89.538391 
z"/>
<path fill="#D0C678" opacity="1.000000" stroke="none" 
	d="
M91.344086,155.441299 
	C119.878258,155.177902 148.734879,155.171783 177.820511,155.532043 
	C176.646515,155.950378 175.243500,156.002365 173.419189,156.087646 
	C147.205368,156.073196 121.412872,156.029465 95.620422,155.966171 
	C94.302246,155.962936 92.984489,155.791641 91.344086,155.441299 
z"/>

</svg>