<svg width="600" height="150" viewBox="0 0 600 150" fill="none" xmlns="http://www.w3.org/2000/svg">
  <defs>
    <style>
      .logo-text {
        font-family: 'Segoe UI', Roboto, Helvetica, Arial, sans-serif;
        font-weight: 900;
        font-size: 85px;
        letter-spacing: -2px; /* Thu hẹp khoảng cách chữ cho hiện đại hơn */
      }
    </style>
  </defs>

  <g id="icon-bus" transform="translate(10, 20)">
    <path d="M10,80 L10,30 C10,15 20,10 40,10 L130,10 C155,10 170,30 175,60 L180,90 L10,90 Z" fill="#0065B3"/>
    
    <path d="M130,10 L130,50 L172,50 C168,30 155,10 130,10 Z" fill="#F3921F"/>
    
    <path d="M25,25 L115,25 L115,50 L25,50 Z" fill="white" fill-opacity="0.2"/>
    
    <circle cx="50" cy="90" r="14" fill="white" stroke="#0065B3" stroke-width="5"/>
    
    <circle cx="140" cy="90" r="14" fill="white" stroke="#0065B3" stroke-width="5"/>
    
    <path d="M-10,40 L0,40 L0,46 L-10,46 Z" fill="#F3921F"/>
    <path d="M-20,55 L0,55 L0,61 L-20,61 Z" fill="#F3921F"/>
  </g>

  <text x="210" y="100" class="logo-text" fill="#FFFFFF">
    VEXETOT
  </text>
  
</svg>